<svg width="382" height="382" xmlns="http://www.w3.org/2000/svg" xmlns:xlink="http://www.w3.org/1999/xlink" xml:space="preserve" overflow="hidden"><g transform="translate(-835 -147)"><path d="M1145.38 226.583 1077.73 226.583 1077.73 206.688C1077.73 191.169 1065.39 178.833 1049.88 178.833L1002.12 178.833C986.606 178.833 974.271 191.169 974.271 206.688L974.271 226.583 906.625 226.583C897.871 226.583 890.708 233.746 890.708 242.5L890.708 258.417 1161.29 258.417 1161.29 242.5C1161.29 233.746 1154.13 226.583 1145.38 226.583ZM998.146 206.688C998.146 204.3 999.737 202.708 1002.12 202.708L1049.88 202.708C1052.26 202.708 1053.85 204.3 1053.85 206.688L1053.85 226.583 998.146 226.583 998.146 206.688Z" fill="#4577B9"/><path d="M914.583 481.25C914.583 490.004 921.746 497.167 930.5 497.167L1121.5 497.167C1130.25 497.167 1137.42 490.004 1137.42 481.25L1137.42 274.333 914.583 274.333 914.583 481.25ZM1077.73 298.208 1101.6 298.208 1101.6 473.292 1077.73 473.292 1077.73 298.208ZM1014.06 298.208 1037.94 298.208 1037.94 473.292 1014.06 473.292 1014.06 298.208ZM950.396 298.208 974.271 298.208 974.271 473.292 950.396 473.292 950.396 298.208Z" fill="#4577B9"/></g></svg>