<?xml version="1.0" encoding="utf-8"?>
<!-- Generator: Adobe Illustrator 26.5.0, SVG Export Plug-In . SVG Version: 6.00 Build 0)  -->
<svg version="1.1" id="Layer_1" xmlns="http://www.w3.org/2000/svg" xmlns:xlink="http://www.w3.org/1999/xlink" x="0px" y="0px"
	 viewBox="0 0 382 382" style="enable-background:new 0 0 382 382;" xml:space="preserve">
<style type="text/css">
	.st0{fill:#4577B9;}
</style>
<g transform="translate(-835 -147)">
	<path class="st0" d="M1033.5,331h-4.3v-1.2c0-1-0.8-1.8-1.7-1.8h-3c-1,0-1.7,0.8-1.7,1.8v1.2h-4.2c-0.5,0-1,0.5-1,1v1h17v-1
		C1034.5,331.5,1034,331,1033.5,331z M1024.2,329.8c0-0.2,0.1-0.3,0.2-0.3h3c0.1,0,0.2,0.1,0.2,0.3v1.2h-3.5V329.8z"/>
	<path class="st0" d="M1019,347c0,0.5,0.5,1,1,1h12c0.5,0,1-0.5,1-1v-13h-14V347z M1029.2,335.5h1.5v11h-1.5V335.5z M1025.2,335.5
		h1.5v11h-1.5V335.5z M1021.2,335.5h1.5v11h-1.5V335.5z"/>
</g>
</svg>
