<svg width="367" height="367" xmlns="http://www.w3.org/2000/svg" xmlns:xlink="http://www.w3.org/1999/xlink" xml:space="preserve" overflow="hidden"><g transform="translate(-73 -171)"><path d="M152.899 391.2 226.299 317.8 185.394 317.8C198.774 291.804 225.917 273.836 257.265 273.836 277.526 273.836 296.258 281.482 310.403 294.098L384.95 294.098C362.395 245.929 313.461 213.052 257.265 213.052 191.893 213.052 136.843 257.398 120.786 317.8L79.499 317.8 152.899 391.2Z" fill="#4577B9"/><path d="M434.648 391.2 361.248 317.8 287.848 391.2 329.135 391.2C315.755 417.196 288.612 435.164 257.265 435.164 237.003 435.164 218.271 427.518 204.126 414.902L129.197 414.902C152.134 463.071 200.685 495.948 257.265 495.948 322.636 495.948 377.686 451.602 393.743 391.2L434.648 391.2Z" fill="#4577B9"/></g></svg>